<svg xmlns="http://www.w3.org/2000/svg" width="1254" height="1254" viewBox="0 0 1254 1254"><rect width="1254" height="1254" fill="#F7F4ED"/><style>text{font-family:"Noto Sans TC","PingFang TC",sans-serif}.t{fill:#0B1F3B}.g{fill:#315A49}.m{fill:#667085}.row{fill:#FFFDF9;stroke:#DED7CA;stroke-width:2}</style><text x="80" y="86" fill="#9B2C2C" font-size="28" font-weight="700">仙加味・依習慣選擇</text><text x="80" y="148" class="t" font-size="52" font-weight="800">你平常怎麼用，就從那一類開始看</text>
<g transform="translate(76 210)"><rect class="row" width="1102" height="205" rx="30"/><text x="38" y="66" class="t" font-size="31" font-weight="800">① 喜歡固定安排</text><text x="38" y="112" class="m" font-size="22">先看膏狀形式</text><image href="../../products-v2/guilu-gao.jpeg" x="720" y="16" width="330" height="170" preserveAspectRatio="xMidYMid meet"/><text x="530" y="137" class="g" font-size="25" font-weight="700">龜鹿膏 100g／罐</text></g>
<g transform="translate(76 435)"><rect class="row" width="1102" height="205" rx="30"/><text x="38" y="66" class="t" font-size="31" font-weight="800">② 重視方便</text><text x="38" y="112" class="m" font-size="22">即飲形式分兩種包裝</text><image href="../../products-v2/guilu-drink-30.jpeg" x="700" y="18" width="160" height="168" preserveAspectRatio="xMidYMid meet"/><image href="../../products-v2/guilu-drink-180.jpeg" x="890" y="18" width="160" height="168" preserveAspectRatio="xMidYMid meet"/><text x="420" y="137" class="g" font-size="23" font-weight="700">30cc玻璃罐／180cc鋁袋</text></g>
<g transform="translate(76 660)"><rect class="row" width="1102" height="205" rx="30"/><text x="38" y="66" class="t" font-size="31" font-weight="800">③ 習慣料理</text><text x="38" y="112" class="m" font-size="22">從家常湯品的使用方式理解</text><image href="../../products-v2/guilu-tangkuai.jpeg" x="700" y="18" width="160" height="168" preserveAspectRatio="xMidYMid meet"/><image href="../../products-v2/guilu-jiao-open-new.jpg" x="890" y="18" width="160" height="168" preserveAspectRatio="xMidYMid meet"/><text x="420" y="137" class="g" font-size="23" font-weight="700">湯塊75g／龜鹿膠600g</text></g>
<g transform="translate(76 885)"><rect class="row" width="1102" height="205" rx="30"/><text x="38" y="66" class="t" font-size="31" font-weight="800">④ 想自行搭配</text><text x="38" y="112" class="m" font-size="22">看粉狀產品與自己的飲用習慣</text><image href="../../products-v2/luerong-fen.jpeg" x="720" y="16" width="330" height="170" preserveAspectRatio="xMidYMid meet"/><text x="500" y="137" class="g" font-size="25" font-weight="700">鹿茸粉 75g／罐</text></g>
<text x="627" y="1162" text-anchor="middle" class="m" font-size="21">不同版面、不沿用舊choose圖示｜六項實際產品照片｜待16項審核</text></svg>