<svg xmlns="http://www.w3.org/2000/svg" width="1254" height="1254" viewBox="0 0 1254 1254"><defs><linearGradient id="g" x1="0" y1="0" x2="1" y2="0"><stop stop-color="#F7C77B"/><stop offset=".5" stop-color="#F2E7D8"/><stop offset="1" stop-color="#9CC4DF"/></linearGradient></defs><rect width="1254" height="1254" fill="url(#g)"/><text x="80" y="92" font-family="Noto Sans TC,PingFang TC,sans-serif" font-size="29" font-weight="700" fill="#9B2C2C">仙加味・換季提醒</text><text x="80" y="158" font-family="Noto Serif TC,PingFang TC,sans-serif" font-size="54" font-weight="800" fill="#0B1F3B">早晚溫差，外出多帶一件</text><rect x="82" y="240" width="500" height="660" rx="40" fill="#FFF6DC" opacity=".9"/><circle cx="410" cy="365" r="76" fill="#F3C34A"/><path d="M110 730Q260 620 400 700T582 660V900H82V780Z" fill="#A7C979"/><text x="330" y="840" text-anchor="middle" font-family="Noto Sans TC,PingFang TC,sans-serif" font-size="36" font-weight="800" fill="#0B1F3B">白天較暖</text><rect x="672" y="240" width="500" height="660" rx="40" fill="#E9F0F7" opacity=".95"/><path d="M965 305a96 96 0 1 0 0 185 78 78 0 1 1 0-185z" fill="#C5D6E6"/><path d="M704 730Q860 630 1000 700T1172 650V900H672V780Z" fill="#91A9BC"/><text x="922" y="840" text-anchor="middle" font-family="Noto Sans TC,PingFang TC,sans-serif" font-size="36" font-weight="800" fill="#0B1F3B">早晚較涼</text><g transform="translate(480 520)" fill="#315A49" stroke="#fff" stroke-width="9"><path d="M130 0l75 48 90 15-36 110-57-18v145H58V155L0 173-36 63l90-15z"/></g><rect x="105" y="982" width="1044" height="138" rx="30" fill="#0B1F3B"/><text x="627" y="1038" text-anchor="middle" font-family="Noto Sans TC,PingFang TC,sans-serif" font-size="30" font-weight="700" fill="#fff">白天與早晚明確分區・薄外套動作符合文案</text><text x="627" y="1082" text-anchor="middle" font-family="Noto Sans TC,PingFang TC,sans-serif" font-size="21" fill="#F4D89B">發布前再確認當日溫度變化</text></svg>