<svg xmlns="http://www.w3.org/2000/svg" width="1080" height="1080" viewBox="0 0 1080 1080" role="img" aria-labelledby="t d"><title id="t">仙加味用料與資料原則圖</title><desc id="d">乾淨原料、製作資料、規格標示與文件整理情境，不誇大、不暗示療效。</desc><defs><linearGradient id="g" x1="0" y1="0" x2="1" y2="1"><stop stop-color="#f8f1e4"/><stop offset="1" stop-color="#d8b77e"/></linearGradient><filter id="s"><feDropShadow dx="0" dy="12" stdDeviation="16" flood-opacity=".22"/></filter></defs><rect width="1080" height="1080" fill="url(#g)"/><rect x="45" y="42" width="990" height="132" rx="34" fill="#fffaf1"/><text x="80" y="95" font-family="Noto Sans TC,Microsoft JhengHei,sans-serif" font-size="28" font-weight="700" fill="#9b1c1f">仙加味・用料原則</text><text x="80" y="150" font-family="Noto Serif TC,Microsoft JhengHei,sans-serif" font-size="50" font-weight="800" fill="#0b1f3b">原料、製作資料與規格都清楚</text><image href="https://ts15825868.github.io/xianjiawei/images/brand/approved-v405/products-all.webp" x="55" y="195" width="970" height="570" preserveAspectRatio="xMidYMid meet" opacity=".32" filter="url(#s)"/><g transform="translate(105 260)" filter="url(#s)"><ellipse cx="165" cy="270" rx="150" ry="72" fill="#8e5d32"/><path d="M35 230q130-145 260 0z" fill="#d5aa63"/><circle cx="120" cy="180" r="28" fill="#a43f2f"/><circle cx="178" cy="155" r="32" fill="#c48b35"/><circle cx="226" cy="190" r="26" fill="#768b42"/><path d="M110 120q45-70 90 0" stroke="#5c7435" stroke-width="18" fill="none"/></g><g transform="translate(560 230)" filter="url(#s)"><rect x="0" y="0" width="350" height="430" rx="24" fill="#fff" stroke="#0b1f3b" stroke-width="8"/><rect x="38" y="52" width="220" height="22" rx="8" fill="#9b1c1f"/><rect x="38" y="105" width="274" height="13" rx="6" fill="#bfc6ce"/><rect x="38" y="145" width="274" height="13" rx="6" fill="#bfc6ce"/><rect x="38" y="185" width="210" height="13" rx="6" fill="#bfc6ce"/><rect x="38" y="245" width="116" height="100" rx="14" fill="#f2e3c5"/><path d="M190 270h118M190 310h118M190 350h92" stroke="#718096" stroke-width="13" stroke-linecap="round"/><circle cx="291" cy="78" r="36" fill="#1f5a47"/><path d="M275 79l12 12 24-30" fill="none" stroke="#fff" stroke-width="10" stroke-linecap="round" stroke-linejoin="round"/></g><rect x="65" y="805" width="950" height="210" rx="34" fill="#0b1f3b"/><g font-family="Noto Sans TC,Microsoft JhengHei,sans-serif" fill="#fff" text-anchor="middle"><text x="540" y="867" font-size="32" font-weight="800">每一項資料，都要能清楚說明</text><text x="250" y="930" font-size="25">原料來源與整理</text><text x="540" y="930" font-size="25">製作資料與規格</text><text x="830" y="930" font-size="25">保存與搭配方式</text><text x="540" y="978" font-size="23" fill="#f5d994">不誇大・不暗示療效・不使用模糊標示</text></g></svg>