<svg xmlns="http://www.w3.org/2000/svg" width="1080" height="1080" viewBox="0 0 1080 1080" role="img" aria-labelledby="t d"><title id="t">仙加味悶熱天氣提醒圖</title><desc id="d">台灣悶熱外出情境，角色分次補水，清爽但不呈現冰飲。</desc><defs><linearGradient id="g" x1="0" y1="0" x2="1" y2="1"><stop stop-color="#fff4c9"/><stop offset="1" stop-color="#f09a3e"/></linearGradient><filter id="s"><feDropShadow dx="0" dy="12" stdDeviation="16" flood-opacity=".25"/></filter></defs><rect width="1080" height="1080" fill="url(#g)"/><circle cx="875" cy="150" r="92" fill="#f6c945"/><g stroke="#f6c945" stroke-width="18"><path d="M875 22v-70M875 278v70M747 150h-70M1003 150h70M785 60l-50-50M965 240l50 50M965 60l50-50M785 240l-50 50"/></g><image href="https://ts15825868.github.io/xianjiawei/images/brand/approved-v405/home-brand.webp" x="60" y="205" width="960" height="650" preserveAspectRatio="xMidYMid meet" filter="url(#s)"/><rect x="55" y="45" width="710" height="126" rx="32" fill="#fffaf1" opacity=".96"/><text x="88" y="96" font-family="Noto Sans TC,Microsoft JhengHei,sans-serif" font-size="29" font-weight="700" fill="#9b1c1f">仙加味・天氣提醒</text><text x="88" y="148" font-family="Noto Serif TC,Microsoft JhengHei,sans-serif" font-size="49" font-weight="800" fill="#0b1f3b">天氣悶熱，分次補水</text><g transform="translate(790 720)"><rect x="0" y="0" width="98" height="210" rx="28" fill="#bfe2df" stroke="#1f5a47" stroke-width="8"/><rect x="28" y="-28" width="42" height="36" rx="8" fill="#1f5a47"/><path d="M18 92h62" stroke="#fff" stroke-width="10"/><text x="49" y="150" text-anchor="middle" font-family="sans-serif" font-size="28" font-weight="700" fill="#1f5a47">水</text></g><rect x="65" y="870" width="950" height="142" rx="32" fill="#0b1f3b"/><text x="540" y="930" text-anchor="middle" font-family="Noto Sans TC,Microsoft JhengHei,sans-serif" font-size="32" font-weight="700" fill="#fff">外出帶水・依活動量分次補充</text><text x="540" y="978" text-anchor="middle" font-family="Noto Sans TC,Microsoft JhengHei,sans-serif" font-size="27" fill="#f5d994">清爽呈現，不使用冰塊或冰飲畫面</text></svg>