<svg xmlns="http://www.w3.org/2000/svg" width="452" height="875" viewBox="0 0 452 875">
<g fill="#682023">
<path d="M 199.00,873.50 L 184.00,872.50 L 160.00,861.50 L 125.00,853.50 L 93.50,833.00 L 82.50,810.00 L 63.50,790.00 L 34.50,744.00 L 33.50,726.00 L 22.50,709.00 L 17.50,682.00 L 3.50,647.00 L 0.50,606.00 L 8.50,553.00 L 10.50,507.00 L 4.50,491.00 L 2.50,402.00 L 11.50,354.00 L 7.50,280.00 L 15.50,226.00 L 13.50,183.00 L 21.50,162.00 L 61.50,99.00 L 67.50,78.00 L 112.00,51.50 L 137.00,24.50 L 153.00,19.50 L 155.50,21.00 L 139.50,33.00 L 118.00,65.50 L 108.00,68.50 L 90.00,64.50 L 84.50,72.00 L 85.50,85.00 L 93.00,93.50 L 117.00,97.50 L 132.00,89.50 L 158.50,54.00 L 170.50,47.00 L 163.50,70.00 L 131.50,123.00 L 113.50,176.00 L 101.50,238.00 L 104.50,291.00 L 111.00,296.50 L 122.00,296.50 L 127.50,290.00 L 131.50,230.00 L 142.50,176.00 L 163.50,126.00 L 194.00,79.50 L 206.50,160.00 L 204.50,231.00 L 213.50,262.00 L 233.00,282.50 L 260.00,293.50 L 294.00,293.50 L 316.00,285.50 L 334.50,267.00 L 345.50,237.00 L 350.50,128.00 L 359.50,99.00 L 360.50,81.00 L 356.00,75.50 L 345.00,75.50 L 336.50,84.00 L 329.50,99.00 L 322.00,134.50 L 304.50,94.00 L 290.50,27.00 L 281.00,14.50 L 269.00,14.50 L 256.50,33.00 L 247.50,98.00 L 235.00,136.50 L 225.50,93.00 L 209.00,74.50 L 195.50,76.00 L 199.50,39.00 L 191.50,25.00 L 217.00,25.50 L 252.00,8.50 L 296.00,1.50 L 311.00,9.50 L 400.50,103.00 L 414.50,133.00 L 424.50,170.00 L 429.50,253.00 L 441.50,323.00 L 439.50,366.00 L 449.50,402.00 L 450.50,576.00 L 449.50,630.00 L 445.50,653.00 L 449.50,700.00 L 431.50,745.00 L 419.50,760.00 L 409.50,784.00 L 381.00,813.50 L 353.00,830.50 L 355.50,792.00 L 348.50,759.00 L 335.50,729.00 L 311.50,702.00 L 341.00,700.50 L 346.50,695.00 L 346.50,685.00 L 333.00,675.50 L 282.50,672.00 L 283.00,649.50 L 330.00,653.50 L 335.50,648.00 L 335.50,639.00 L 320.00,626.50 L 283.00,623.50 L 281.50,581.00 L 275.00,573.50 L 262.00,573.50 L 255.50,582.00 L 255.50,622.00 L 224.00,627.50 L 213.50,637.00 L 213.50,647.00 L 219.00,653.50 L 256.00,650.50 L 256.50,672.00 L 216.00,674.50 L 199.50,685.00 L 199.50,698.00 L 204.00,702.50 L 218.50,704.00 L 200.50,726.00 L 187.50,753.00 L 176.50,791.00 L 175.50,826.00 L 181.00,832.50 L 189.00,832.50 L 198.50,823.00 L 228.50,739.00 L 244.00,721.50 L 255.00,715.50 L 256.50,813.00 L 260.50,835.00 L 265.00,839.50 L 274.00,839.50 L 281.50,829.00 L 284.00,721.50 L 315.50,760.00 L 322.50,782.00 L 327.50,832.00 L 333.00,838.50 L 343.50,840.00 L 317.00,850.50 L 301.00,850.50 L 275.00,843.50 L 250.00,860.50 L 199.00,873.50 Z"/>
<path d="M 280.00,267.50 L 260.00,263.50 L 243.50,251.00 L 234.50,216.00 L 234.50,201.00 L 260.50,162.00 L 277.00,99.50 L 293.50,147.00 L 319.50,192.00 L 317.50,222.00 L 310.50,247.00 L 300.00,259.50 L 280.00,267.50 Z"/>
<path d="M 206.50,566.00 L 214.00,565.50 L 218.50,559.00 L 209.50,487.00 L 209.50,458.00 L 221.50,396.00 L 219.50,371.00 L 214.50,361.00 L 202.00,350.50 L 169.00,344.50 L 160.50,302.00 L 150.00,292.50 L 136.00,292.50 L 131.50,297.00 L 131.50,311.00 L 137.50,328.00 L 137.50,346.00 L 125.00,350.50 L 106.00,348.50 L 101.50,354.00 L 101.50,366.00 L 110.00,377.50 L 135.00,377.50 L 135.50,384.00 L 124.50,443.00 L 95.50,522.00 L 95.50,557.00 L 101.00,564.50 L 111.00,564.50 L 116.50,557.00 L 128.50,512.00 L 154.50,446.00 L 165.50,374.00 L 174.00,373.50 L 186.00,378.50 L 189.50,384.00 L 181.50,470.00 L 181.50,524.00 L 188.50,549.00 L 202.00,565.50 L 206.50,566.00 Z"/>
<path d="M 283.50,547.00 L 301.00,543.50 L 316.00,535.50 L 327.50,524.00 L 337.50,504.00 L 348.50,387.00 L 358.50,347.00 L 358.50,328.00 L 353.00,321.50 L 338.00,321.50 L 331.50,328.00 L 319.00,372.50 L 296.00,367.50 L 264.00,371.50 L 254.50,335.00 L 244.00,324.50 L 233.00,324.50 L 229.50,328.00 L 233.50,380.00 L 226.50,459.00 L 228.50,500.00 L 235.50,518.00 L 249.00,534.50 L 266.00,544.50 L 283.50,547.00 Z"/>
<path d="M 283.00,519.50 L 266.50,509.00 L 258.50,493.00 L 258.50,435.00 L 263.50,403.00 L 296.00,394.50 L 317.50,405.00 L 313.50,472.00 L 304.50,502.00 L 297.00,511.50 L 283.00,519.50 Z"/>
<path d="M 150.50,789.00 L 164.00,784.50 L 177.50,771.00 L 183.50,759.00 L 189.50,731.00 L 192.50,676.00 L 207.50,638.00 L 207.50,623.00 L 202.00,618.50 L 185.00,620.50 L 173.50,633.00 L 168.00,647.50 L 148.00,641.50 L 117.00,646.50 L 104.00,625.50 L 79.00,623.50 L 75.50,636.00 L 92.50,672.00 L 92.50,723.00 L 97.50,758.00 L 117.00,782.50 L 135.00,789.50 L 150.50,789.00 Z"/>
<path d="M 142.00,760.50 L 133.50,757.00 L 125.50,739.00 L 120.50,679.00 L 133.00,671.50 L 146.00,669.50 L 163.50,678.00 L 163.50,703.00 L 154.50,747.00 L 142.00,760.50 Z"/>
</g>
<g fill="#CEB1A7">
<path d="M 297.50,0.00 L 312.00,8.50 L 336.50,35.00 L 311.00,9.50 L 296.00,1.50 L 282.00,1.50 L 252.00,8.50 L 230.00,21.50 L 217.00,25.50 L 194.00,24.50 L 192.00,27.50 L 188.50,24.00 L 223.00,22.50 L 247.00,8.50 L 278.50,0.00 Z"/>
<path d="M 309.00,108.50 L 299.50,82.00 L 289.50,28.00 L 280.00,15.50 L 271.00,15.50 L 262.00,23.50 L 269.00,14.50 L 281.00,14.50 L 290.50,27.00 L 309.00,108.50 Z"/>
<path d="M 122.00,296.50 L 111.00,296.50 L 103.50,289.00 L 103.50,224.00 L 124.50,140.00 L 139.50,107.00 L 159.00,77.50 L 128.50,134.00 L 115.50,174.00 L 106.50,215.00 L 102.50,247.00 L 103.50,284.00 L 110.00,294.50 L 121.00,295.50 L 126.50,289.00 L 133.50,208.00 L 140.50,178.00 L 152.00,147.50 L 137.50,196.00 L 129.50,248.00 L 127.50,290.00 L 122.00,296.50 Z"/>
<path d="M 329.00,273.50 L 339.50,253.00 L 346.50,224.00 L 348.50,133.00 L 359.50,93.00 L 360.00,80.50 L 360.50,94.00 L 350.50,128.00 L 347.50,226.00 L 340.50,254.00 L 329.00,273.50 Z"/>
<path d="M 442.00,352.50 L 441.50,323.00 L 428.50,243.00 L 427.50,190.00 L 416.00,135.50 L 428.50,187.00 L 430.50,252.00 L 442.50,322.00 L 442.00,352.50 Z"/>
<path d="M 0.00,417.50 L 2.50,384.00 L 10.50,352.00 L 6.50,328.00 L 6.50,275.00 L 8.50,249.00 L 14.50,224.00 L 12.50,182.00 L 21.00,161.50 L 13.50,183.00 L 15.50,226.00 L 9.50,250.00 L 7.50,280.00 L 7.50,325.00 L 11.50,354.00 L 2.50,402.00 L 4.50,491.00 L 10.50,507.00 L 7.50,521.00 L 8.50,553.00 L 4.00,580.50 L 8.50,503.00 L 2.50,487.00 L 4.50,462.00 L 0.00,426.50 Z"/>
<path d="M 279.00,269.50 L 253.00,261.50 L 238.50,245.00 L 232.50,205.00 L 234.50,198.00 L 249.00,181.50 L 234.50,201.00 L 237.50,237.00 L 243.50,251.00 L 256.00,261.50 L 273.00,267.50 L 293.00,263.50 L 307.50,253.00 L 297.00,263.50 L 279.00,269.50 Z"/>
<path d="M 103.00,503.50 L 124.50,443.00 L 135.50,379.00 L 110.00,377.50 L 101.50,366.00 L 101.50,354.00 L 106.00,348.50 L 125.00,350.50 L 137.50,346.00 L 137.50,328.00 L 131.50,311.00 L 131.50,297.00 L 136.00,292.50 L 150.00,292.50 L 158.50,299.00 L 161.00,307.50 L 156.50,299.00 L 149.00,293.50 L 138.00,293.50 L 132.50,298.00 L 132.50,310.00 L 138.50,326.00 L 138.50,348.00 L 125.00,352.50 L 107.00,349.50 L 103.50,353.00 L 105.50,371.00 L 112.00,376.50 L 136.00,376.50 L 136.50,386.00 L 127.50,437.00 L 103.00,503.50 Z"/>
<path d="M 342.00,471.50 L 346.50,391.00 L 357.50,345.00 L 356.50,327.00 L 352.00,322.50 L 339.00,322.50 L 330.50,332.00 L 324.00,354.50 L 323.50,350.00 L 331.50,328.00 L 338.00,321.50 L 348.00,320.50 L 353.00,321.50 L 358.50,328.00 L 358.50,347.00 L 348.50,387.00 L 342.00,471.50 Z"/>
<path d="M 320.00,374.50 L 302.00,369.50 L 263.00,372.50 L 258.50,347.00 L 253.50,336.00 L 244.00,326.50 L 234.00,325.50 L 230.50,329.00 L 231.00,343.50 L 229.50,328.00 L 233.00,324.50 L 244.00,324.50 L 254.50,335.00 L 260.50,349.00 L 264.00,370.50 L 296.00,367.50 L 318.00,372.50 L 321.00,363.50 L 320.00,374.50 Z"/>
<path d="M 451.00,701.50 L 427.00,753.50 L 449.50,700.00 L 445.50,668.00 L 450.50,576.00 L 447.50,489.00 L 449.50,402.00 L 439.50,366.00 L 441.00,352.50 L 441.50,369.00 L 451.00,400.50 Z"/>
<path d="M 213.00,522.50 L 207.50,472.00 L 219.50,399.00 L 218.00,368.50 L 221.50,396.00 L 209.50,458.00 L 213.00,522.50 Z"/>
<path d="M 111.00,564.50 L 101.00,564.50 L 94.50,553.00 L 93.50,535.00 L 99.50,508.00 L 102.00,503.50 L 95.50,528.00 L 95.50,552.00 L 102.00,563.50 L 110.00,563.50 L 115.50,555.00 L 128.50,508.00 L 148.50,462.00 L 158.50,421.00 L 164.50,373.00 L 174.00,372.50 L 165.50,375.00 L 161.50,412.00 L 151.50,457.00 L 128.50,512.00 L 116.50,557.00 L 111.00,564.50 Z"/>
<path d="M 281.00,519.50 L 265.50,510.00 L 256.50,491.00 L 254.50,478.00 L 256.50,441.00 L 261.50,403.00 L 293.00,392.50 L 296.50,394.00 L 277.00,397.50 L 262.50,405.00 L 258.50,435.00 L 256.50,465.00 L 258.50,493.00 L 266.50,509.00 L 281.00,519.50 Z"/>
<path d="M 327.00,719.50 L 308.50,701.00 L 340.00,699.50 L 345.50,694.00 L 345.50,686.00 L 338.00,678.50 L 331.00,676.50 L 283.00,674.50 L 280.50,652.00 L 282.00,648.50 L 294.00,648.50 L 328.00,652.50 L 333.50,649.00 L 333.50,638.00 L 322.00,628.50 L 282.00,624.50 L 279.50,580.00 L 273.00,574.50 L 262.00,573.50 L 275.00,573.50 L 281.50,581.00 L 284.00,623.50 L 320.00,626.50 L 327.00,629.50 L 335.50,639.00 L 335.50,648.00 L 330.00,653.50 L 282.50,651.00 L 284.00,672.50 L 333.00,675.50 L 346.50,685.00 L 346.50,695.00 L 343.00,699.50 L 312.50,703.00 L 327.00,719.50 Z"/>
<path d="M 451.00,630.50 L 447.50,647.00 L 447.50,674.00 L 451.00,687.50 Z"/>
<path d="M 207.00,679.50 L 216.00,674.50 L 254.00,673.50 L 256.50,671.00 L 255.00,650.50 L 219.00,653.50 L 213.50,647.00 L 214.00,636.50 L 214.50,646.00 L 220.00,652.50 L 257.50,650.00 L 256.00,674.50 L 228.00,674.50 L 207.00,679.50 Z"/>
<path d="M 279.00,834.50 L 282.50,808.00 L 283.00,719.50 L 294.50,730.00 L 285.00,722.50 L 283.50,724.00 L 283.50,816.00 L 279.00,834.50 Z"/>
</g>
</svg>