<svg xmlns="http://www.w3.org/2000/svg" width="1254" height="1254" viewBox="0 0 1254 1254" role="img" aria-labelledby="t d">
<title id="t">怎麼選龜鹿產品</title><desc id="d">依固定安排、方便即飲、料理搭配、自行搭配四種使用方式分類，產品使用 products-v3 正式原圖。</desc>
<rect width="1254" height="1254" fill="#F7F4ED"/><rect width="1254" height="188" fill="#0B1F3B"/>
<rect x="64" y="48" width="48" height="52" rx="8" fill="#912825"/><text x="88" y="82" text-anchor="middle" font-family="Noto Serif TC,serif" font-size="22" font-weight="700" fill="#fff">仙</text>
<text x="134" y="92" font-family="Noto Serif TC,serif" font-size="56" font-weight="700" fill="#fff">怎麼選龜鹿產品</text><text x="136" y="132" font-family="Noto Sans TC,sans-serif" font-size="23" fill="#DCE6F0">先看使用方式，再確認正式規格</text><line x1="64" y1="164" x2="1190" y2="164" stroke="#B98B43" stroke-width="2"/>
<g font-family="Noto Sans TC,sans-serif">
<g transform="translate(68 225)"><rect width="547" height="450" rx="24" fill="#FFFDF8" stroke="#DED6C8"/><text x="24" y="58" font-family="Noto Serif TC,serif" font-size="34" font-weight="700" fill="#0B1F3B">固定安排</text><text x="24" y="94" font-size="19" fill="#667085">龜鹿膏100g</text><image href="https://ts15825868.github.io/xianjiawei/images/products-v3/guilu-gao.jpg?v=20260809-25" x="180" y="106" width="330" height="314" preserveAspectRatio="xMidYMid meet"/></g>
<g transform="translate(639 225)"><rect width="547" height="450" rx="24" fill="#FFFDF8" stroke="#DED6C8"/><text x="24" y="58" font-family="Noto Serif TC,serif" font-size="34" font-weight="700" fill="#0B1F3B">方便即飲</text><text x="24" y="94" font-size="18" fill="#667085">30cc小玻璃罐／180cc鋁袋</text><image href="https://ts15825868.github.io/xianjiawei/images/products-v3/guilu-drink-30.jpg?v=20260809-25" x="34" y="120" width="220" height="285" preserveAspectRatio="xMidYMid meet"/><image href="https://ts15825868.github.io/xianjiawei/images/products-v3/guilu-drink-180.jpg?v=20260809-25" x="287" y="120" width="220" height="285" preserveAspectRatio="xMidYMid meet"/></g>
<g transform="translate(68 699)"><rect width="547" height="450" rx="24" fill="#FFFDF8" stroke="#DED6C8"/><text x="24" y="58" font-family="Noto Serif TC,serif" font-size="34" font-weight="700" fill="#0B1F3B">料理搭配</text><text x="24" y="94" font-size="18" fill="#667085">龜鹿湯塊75g／龜鹿膠600g</text><image href="https://ts15825868.github.io/xianjiawei/images/products-v3/guilu-tangkuai.jpg?v=20260809-25" x="34" y="120" width="220" height="285" preserveAspectRatio="xMidYMid meet"/><image href="https://ts15825868.github.io/xianjiawei/images/products-v3/guilu-jiao.jpg?v=20260809-25" x="287" y="120" width="220" height="285" preserveAspectRatio="xMidYMid meet"/></g>
<g transform="translate(639 699)"><rect width="547" height="450" rx="24" fill="#FFFDF8" stroke="#DED6C8"/><text x="24" y="58" font-family="Noto Serif TC,serif" font-size="34" font-weight="700" fill="#0B1F3B">自行搭配</text><text x="24" y="94" font-size="19" fill="#667085">鹿茸粉75g</text><image href="https://ts15825868.github.io/xianjiawei/images/products-v3/luerong-fen.jpg?v=20260809-25" x="180" y="106" width="330" height="314" preserveAspectRatio="xMidYMid meet"/></g>
</g>
<line x1="64" y1="1188" x2="1190" y2="1188" stroke="#DCCFB8"/><text x="64" y="1228" font-family="Noto Serif TC,serif" font-size="26" font-weight="700" fill="#0B1F3B">仙加味</text><text x="1190" y="1228" text-anchor="end" font-family="Noto Sans TC,sans-serif" font-size="20" fill="#667085">補養，是一種節奏。</text>
</svg>